PathFileType	4	(X/Y/Z)	OpenSim_Sub08_EMGStiffKnee_Accel.trc
DataRate	CameraRate	NumFrames	NumMarkers	Units	OrigDataRate	OrigDataStartFrame	OrigNumFrames
100	100	13	8	m	100	4726	6301
Frame#	Time	torso_imu_offset_imu	pelvis_imu_offset_imu	tibia_r_imu_offset_imu	femur_r_imu_offset_imu	tibia_l_imu_offset_imu	femur_l_imu_offset_imu	toes_r_imu_offset_imu	toes_l_imu_offset_imu
				X1	Y1	Z1	X2	Y2	Z2	X3	Y3	Z3	X4	Y4	Z4	X5	Y5	Z5	X6	Y6	Z6	X7	Y7	Z7	X8		Y8	Z8	

4726	47.25000000	9.71749330	-0.43275522	6.13535343	10.26595671	0.58241608	3.37658783	11.58530367	0.53974474	-0.11418188	10.71860172	-1.67586845	-0.58309977	10.35896715	-2.76622107	1.76571569	7.88388893	3.84882426	0.88749494	4.84939838	-1.33305540	9.31101787	-4.10035523	-1.52371048	15.70780226
4727	47.26000000	10.61041692	-0.22654156	6.37235538	10.54104626	0.06659016	4.09361582	12.13490803	1.10724888	0.53790132	11.47997976	-2.49999351	0.41824895	11.24969551	3.87684724	5.04825682	10.78416265	4.13672369	2.36331343	4.73350186	-1.31512972	9.47625956	-3.20699482	7.56081177	8.94206845
4728	47.27000000	10.97498603	-0.08519245	6.39295801	10.30492421	-0.63578755	4.92019005	12.66840755	1.91907993	1.04001142	11.62624944	-2.70281468	1.09752067	12.82599771	12.89088280	8.39627724	13.59519009	3.19142798	3.66655915	4.77179574	-0.83031554	9.63141711	5.21279030	8.77547956	15.84507626
4729	47.28000000	10.91378198	-0.17818542	6.42504677	10.76434215	-1.36815283	5.65225564	12.77074002	2.37914203	1.85676934	11.24889828	-2.15198571	0.83311297	14.60051540	16.04461755	7.58967389	15.39458783	2.17476088	4.80399791	4.67575700	-0.48110697	9.79201801	12.79386463	2.36203257	14.44802282
4730	47.29000000	11.24103614	-0.26813627	6.62763828	11.52321013	-2.42389157	6.36417969	12.73896562	2.34883598	2.31055457	11.02364098	-1.62999727	0.23927564	16.92117904	12.79346105	4.59449570	17.58021801	2.08867006	5.48876315	4.27226102	-0.24389214	9.84736997	11.25886518	0.14443771	16.77312666
4731	47.30000000	12.29140682	-0.15619038	6.75662442	12.34834210	-3.77239121	6.95546539	12.76652996	1.94442817	2.13442700	10.91146344	-0.78292269	-0.09511676	17.30881913	7.09126714	3.92245744	17.68422420	3.54866605	4.29853544	3.89355847	0.25371499	9.90334833	15.22920762	-3.71091491	15.87414972
4732	47.31000000	12.75043286	0.18133944	6.57360361	12.94517650	-4.49663761	7.32911315	12.51566846	0.82401963	1.90229912	11.21466827	0.22730107	-0.06995030	15.47978409	-0.74407623	2.29415089	13.80545185	5.31617561	0.98827126	3.56567730	-0.14873258	9.78398629	15.60070301	3.87885127	14.31962698
4733	47.32000000	12.32242295	0.40194157	6.33165493	11.63603698	-3.84821283	7.19305619	11.97797948	-1.00474198	2.19371517	11.66068401	1.04462439	0.13889348	11.19988366	-7.04093793	-0.24691676	10.16316875	5.05095797	-2.14223815	3.68991446	-1.71244135	8.66835552	10.23526443	3.14930209	11.35503669
4734	47.33000000	11.68582912	0.50738047	6.18668223	9.99843527	-1.29944266	6.68086648	11.59646766	-2.30597021	1.28046590	12.03729772	1.49348800	0.73648741	5.92351891	-12.17355011	-4.79827778	8.48543579	3.32714919	-3.57330412	3.85816907	-2.41713353	8.56791471	9.22271240	1.49215563	11.94749816
4735	47.34000000	11.24241102	0.74164004	6.03681628	8.88969531	1.39938656	6.22765955	11.93859097	-2.31077723	0.64625818	11.82361203	1.43170005	1.49010932	4.15809529	-15.03214487	-7.36594193	7.72334626	0.68809829	-3.38395415	4.99072211	-3.10792864	8.12632961	9.92195084	3.22950217	11.55719032
4736	47.35000000	10.89869301	0.99350074	5.85918383	8.46152423	3.61912950	5.96162042	12.08335204	-1.99135091	0.61174377	11.43762327	1.34961615	2.21773905	8.51158625	-9.96710050	-4.89935448	8.39460668	-3.26273285	-1.68637758	5.49070942	-3.77595493	8.23133742	14.27494662	12.02745129	15.36639356
4737	47.36000000	10.50779539	1.12243769	5.82462615	8.27185801	4.92637387	5.54004880	11.61133995	-1.93887200	0.09167282	10.91661843	1.56423604	2.65378948	10.68505943	-0.82201829	-3.35443370	8.77858721	-5.86191217	-0.32421123	6.28837194	-4.13357188	9.07903975	3.47055733	2.54342259	11.53034556
4738	47.37000000	10.30232554	1.28045131	5.70550275	7.93053539	5.11733723	5.53064936	11.10148233	-2.10477849	-1.42330392	11.05593048	2.42633559	2.55445831	10.93958704	2.04357848	-3.77990209	7.45405661	-4.79489703	-0.77068033	8.98237709	-4.86013434	8.48674029	7.99552071	-3.11486695	9.38474586
